<?xml version="1.0" standalone="no"?>
<!DOCTYPE svg PUBLIC "-//W3C//DTD SVG 20010904//EN"
 "http://www.w3.org/TR/2001/REC-SVG-20010904/DTD/svg10.dtd">
<svg version="1.0" xmlns="http://www.w3.org/2000/svg"
 width="500.000000pt" height="500.000000pt" viewBox="0 0 500.000000 500.000000"
 preserveAspectRatio="xMidYMid meet">

<g transform="translate(0.000000,500.000000) scale(0.100000,-0.100000)"
fill="#000000" stroke="none">
<path d="M2330 4509 c-99 -26 -151 -45 -337 -130 -87 -39 -250 -106 -361 -150
-404 -156 -510 -240 -637 -504 -30 -60 -79 -177 -110 -260 -32 -82 -88 -217
-125 -300 -93 -206 -118 -268 -140 -354 -57 -214 -30 -365 121 -699 39 -86
111 -258 159 -382 96 -248 114 -288 171 -371 108 -160 225 -234 584 -369 77
-29 230 -92 340 -141 285 -126 347 -143 515 -143 163 0 236 19 460 120 135 61
234 102 550 226 156 61 243 112 330 194 113 107 167 205 295 539 32 82 82 203
112 270 139 304 181 458 168 609 -10 119 -36 206 -115 387 -40 90 -112 265
-162 389 -154 385 -225 500 -372 604 -86 61 -158 96 -400 191 -116 46 -281
115 -367 153 -171 78 -252 107 -349 128 -94 20 -240 17 -330 -7z m568 -1318
c2 -181 -1 -236 -10 -243 -7 -4 -178 -8 -380 -8 -283 0 -369 3 -375 13 -8 13
-5 456 3 469 3 5 175 7 382 6 l377 -3 3 -234z m60 -321 c48 -45 63 -64 60 -82
l-3 -23 -502 -3 -502 -2 -7 22 c-6 19 4 33 62 85 l69 63 380 -1 380 0 63 -59z
m-183 -506 l0 -69 -40 -3 c-48 -4 -65 15 -65 73 0 62 28 89 80 75 24 -6 25
-10 25 -76z m-1417 64 c15 -15 16 -70 1 -85 -8 -8 -8 -17 0 -32 10 -18 9 -21
-7 -21 -10 0 -24 10 -30 23 l-11 22 0 -23 c-1 -17 -6 -22 -18 -20 -19 4 -25
49 -15 116 4 28 8 32 36 32 18 0 37 -5 44 -12z m132 -3 c0 -9 -9 -15 -25 -15
-16 0 -25 -6 -25 -15 0 -8 9 -15 20 -15 11 0 20 -7 20 -15 0 -8 -9 -15 -20
-15 -11 0 -20 -7 -20 -15 0 -9 9 -15 25 -15 16 0 25 -6 25 -15 0 -11 -11 -15
-40 -15 l-40 0 0 75 0 75 40 0 c29 0 40 -4 40 -15z m119 2 c15 -19 3 -28 -25
-21 -31 8 -31 -10 0 -24 32 -14 46 -41 35 -69 -6 -18 -16 -23 -43 -23 -38 0
-51 12 -42 37 5 12 9 14 18 5 7 -7 18 -12 25 -12 23 0 14 19 -16 35 -34 17
-48 50 -31 70 16 19 64 19 79 2z m146 -62 l0 -70 -45 0 -45 0 -3 59 c-4 81 0
88 50 84 l43 -3 0 -70z m75 28 c0 -56 11 -78 34 -70 12 5 16 20 16 62 0 42 3
55 15 55 12 0 15 -14 15 -63 0 -72 -10 -87 -57 -87 -41 0 -53 21 -53 94 0 43
3 56 15 56 11 0 15 -12 15 -47z m206 -30 c1 -78 -10 -93 -39 -50 l-16 22 0
-22 c-1 -14 -7 -23 -16 -23 -12 0 -15 15 -15 76 l0 75 43 -3 42 -3 1 -72z
m148 55 c15 -24 0 -34 -28 -19 -32 18 -46 7 -46 -35 0 -40 25 -57 45 -31 16
22 35 22 35 -1 0 -27 -20 -42 -55 -42 -17 0 -36 5 -43 12 -16 16 -15 111 0
126 18 18 79 11 92 -10z m76 -53 c0 -60 -3 -75 -15 -75 -12 0 -15 15 -15 75 0
60 3 75 15 75 12 0 15 -15 15 -75z m140 56 c13 -25 13 -87 0 -112 -14 -25 -85
-27 -94 -3 -8 21 -8 119 1 127 3 4 23 7 44 7 28 0 41 -5 49 -19z m234 -3 c15
-24 0 -34 -28 -19 -32 18 -46 7 -46 -35 0 -40 25 -57 45 -31 16 22 35 22 35
-1 0 -27 -20 -42 -55 -42 -17 0 -36 5 -43 12 -16 16 -15 111 0 126 18 18 79
11 92 -10z m239 -20 c12 -36 16 -40 22 -23 18 52 26 65 40 65 12 0 15 -15 15
-75 0 -60 -3 -75 -15 -75 -10 0 -15 10 -16 28 l-1 27 -10 -27 c-13 -38 -34
-35 -44 5 l-8 32 -3 -32 c-3 -20 -10 -33 -19 -33 -11 0 -14 16 -14 75 0 67 2
75 19 75 14 0 24 -12 34 -42z m171 7 c10 -49 21 -51 35 -5 9 29 17 40 31 40
18 0 20 -7 20 -75 0 -60 -3 -75 -15 -75 -10 0 -15 11 -16 33 l-1 32 -14 -32
c-8 -18 -18 -33 -24 -33 -5 0 -14 15 -19 33 l-9 32 -1 -32 c-1 -22 -6 -33 -16
-33 -12 0 -15 15 -15 75 0 67 2 75 19 75 14 0 21 -10 25 -35z m156 -20 c0 -42
4 -57 16 -62 23 -8 34 14 34 70 0 35 4 47 15 47 12 0 15 -13 15 -56 0 -73 -12
-94 -53 -94 -47 0 -57 15 -57 87 0 49 3 63 15 63 12 0 15 -13 15 -55z m164 28
l15 -28 1 28 c0 21 4 28 16 25 16 -3 19 -33 15 -125 -1 -33 -25 -28 -44 10
l-16 32 0 -32 c-1 -22 -6 -33 -16 -33 -12 0 -15 15 -15 75 0 59 3 75 15 75 8
0 21 -12 29 -27z m126 -48 c0 -60 -3 -75 -15 -75 -12 0 -15 15 -15 75 0 60 3
75 15 75 12 0 15 -15 15 -75z m130 60 c0 -8 -7 -15 -15 -15 -12 0 -15 -13 -15
-60 0 -47 -3 -60 -15 -60 -12 0 -15 13 -15 56 0 47 -3 57 -20 61 -11 3 -20 12
-20 19 0 10 14 14 50 14 38 0 50 -4 50 -15z m65 -2 c6 -17 7 -17 16 0 10 17
39 24 39 10 -1 -5 -7 -19 -15 -33 -8 -14 -14 -44 -15 -67 0 -31 -4 -43 -15
-43 -10 0 -15 10 -15 33 0 17 -9 51 -20 75 -18 40 -18 42 -1 42 11 0 22 -8 26
-17z m-2022 -551 c39 -5 34 -24 -5 -20 l-33 3 -1 95 -1 95 6 -85 c6 -84 6 -85
34 -88z m157 158 c0 -5 -16 -10 -35 -10 -33 0 -35 -2 -35 -35 0 -33 2 -35 38
-37 l37 -1 -37 -4 c-36 -4 -38 -6 -38 -39 0 -32 2 -34 35 -34 19 0 35 -5 35
-11 0 -6 -17 -9 -42 -7 l-43 3 -3 79 c-2 44 -1 85 2 93 6 15 86 18 86 3z m270
-10 c24 -24 25 -47 3 -72 -15 -17 -15 -20 2 -53 11 -19 16 -37 13 -41 -4 -3
-16 13 -28 36 -26 51 -55 52 -55 2 1 -17 -3 -32 -7 -32 -10 0 -11 164 -1 173
13 14 54 6 73 -13z m114 -47 l35 -68 1 63 c0 34 4 62 10 62 12 0 14 -167 1
-174 -5 -3 -24 27 -42 67 l-34 72 -6 -75 -5 -75 -2 98 c-1 53 0 97 3 97 3 0
20 -30 39 -67z m256 57 c0 -5 -7 -10 -15 -10 -12 0 -15 -15 -15 -79 0 -44 -4
-83 -10 -86 -6 -4 -10 25 -10 79 0 70 -3 86 -15 86 -8 0 -15 5 -15 10 0 6 18
10 40 10 22 0 40 -4 40 -10z m126 -15 c12 -19 15 -41 12 -86 -5 -63 -15 -79
-53 -79 -36 0 -45 20 -45 97 0 58 3 74 18 82 28 17 51 12 68 -14z m131 13 c15
-20 23 -48 14 -48 -5 0 -11 9 -14 20 -7 29 -37 37 -53 15 -18 -25 -18 -116 0
-141 12 -15 18 -17 33 -8 24 14 30 64 9 64 -9 0 -16 5 -16 11 0 6 10 9 23 7
19 -3 22 -8 20 -42 -3 -42 -15 -56 -48 -56 -36 0 -45 20 -45 97 0 58 3 74 18
82 23 14 48 13 59 -1z m143 2 c0 -5 -16 -10 -36 -10 -34 0 -35 -1 -32 -32 3
-29 7 -34 38 -39 l35 -6 -37 -2 c-36 -1 -38 -2 -38 -36 0 -34 1 -35 40 -35 22
0 40 -4 40 -10 0 -5 -20 -10 -45 -10 l-45 0 0 95 0 95 40 0 c22 0 40 -4 40
-10z m140 0 c0 -5 -9 -10 -20 -10 -18 0 -20 -7 -22 -87 l-2 -88 -3 88 c-3 79
-6 87 -23 87 -11 0 -20 5 -20 10 0 6 20 10 45 10 25 0 45 -4 45 -10z m83 -78
c30 3 32 6 38 48 4 29 6 11 6 -55 0 -66 -2 -84 -6 -55 -6 42 -8 45 -38 48 -31
3 -32 2 -36 -45 -2 -26 -3 -3 -3 52 0 55 1 78 3 52 4 -47 5 -48 36 -45z m182
78 c4 -6 -10 -10 -35 -10 -41 0 -41 -1 -38 -32 3 -29 7 -34 38 -39 l35 -6 -37
-2 c-36 -1 -38 -2 -38 -36 0 -34 1 -35 40 -35 22 0 40 -4 40 -10 0 -5 -20 -10
-45 -10 l-45 0 0 95 0 95 39 0 c22 0 43 -4 46 -10z m110 4 c28 -11 37 -52 19
-83 -15 -26 -15 -30 1 -60 9 -18 14 -35 11 -38 -2 -3 -14 13 -26 36 -27 55
-57 56 -63 4 -2 -21 -4 4 -5 55 -2 91 -2 92 22 92 13 0 32 -3 41 -6z m-1426
-85 c12 -45 19 -84 17 -87 -3 -2 -8 7 -12 22 -5 20 -12 26 -35 26 -22 0 -30
-6 -35 -25 -3 -14 -10 -25 -14 -25 -5 0 -3 19 5 43 8 23 19 61 25 85 6 23 14
42 19 42 4 0 18 -37 30 -81z m-364 -399 l0 -85 -87 -3 -88 -3 0 91 0 91 88 -3
87 -3 0 -85z m762 68 c-3 -13 -11 -52 -18 -88 -6 -36 -15 -69 -20 -74 -4 -5
-20 1 -35 13 -25 20 -28 20 -46 5 -21 -20 -22 -19 -35 21 -5 17 -22 36 -37 43
-15 8 -26 16 -23 18 6 6 200 83 211 83 4 1 6 -9 3 -21z m304 -17 c37 -37 38
-79 3 -120 -31 -38 -44 -39 -44 -6 0 14 4 25 10 25 16 0 28 34 23 62 -5 24 -9
26 -51 26 -26 0 -50 -5 -54 -11 -14 -22 -8 -56 12 -70 22 -15 17 -28 -8 -20
-13 4 -13 1 2 -11 29 -24 13 -29 -17 -6 -34 27 -43 70 -23 109 31 60 99 70
147 22z m1044 -56 c0 -80 0 -80 -27 -83 -25 -3 -28 0 -28 27 0 18 7 34 18 40
16 9 16 11 -3 25 -19 13 -19 15 -2 21 25 10 21 25 -8 25 -15 0 -25 -6 -25 -14
0 -8 -8 -22 -17 -32 -13 -13 -14 -19 -5 -22 6 -2 12 -19 12 -38 0 -35 0 -35
-42 -32 l-43 3 -3 69 c-2 38 -1 75 2 83 4 11 25 13 88 11 l83 -3 0 -80z
m-1738 67 c20 -12 39 -100 27 -120 -12 -18 -54 -30 -54 -15 0 5 -22 9 -50 9
-27 0 -50 -3 -50 -8 0 -14 -38 -9 -53 7 -12 11 -13 23 -6 56 17 76 21 79 102
79 40 0 77 -4 84 -8z m1049 -13 c20 -16 19 -122 -1 -139 -9 -7 -41 -13 -71
-14 -68 -1 -84 16 -84 84 0 53 14 77 50 83 36 7 89 0 106 -14z m361 15 c19 -5
21 -11 16 -38 -14 -74 -58 -116 -122 -116 -33 0 -49 15 -26 24 14 5 14 8 0 30
-9 14 -18 41 -21 61 l-4 37 33 -21 c39 -24 57 -27 57 -8 0 16 20 37 35 37 5 0
20 -3 32 -6z"/>
<path d="M2170 3185 l0 -205 345 0 345 0 0 205 0 205 -345 0 -345 0 0 -205z
m238 159 c26 -18 28 -41 5 -66 -15 -17 -15 -21 5 -57 28 -49 28 -51 -7 -51
-22 0 -31 6 -41 30 -7 17 -16 30 -21 30 -5 0 -9 -13 -9 -30 0 -25 -4 -30 -25
-30 -25 0 -25 1 -25 88 0 49 3 92 7 95 12 13 89 7 111 -9z m257 -75 c11 -17 0
-20 -34 -8 -101 35 -175 -82 -102 -163 24 -27 36 -33 70 -32 22 1 48 7 56 14
21 17 19 4 -2 -17 -22 -22 -96 -16 -136 10 -46 30 -54 118 -15 165 30 35 147
58 163 31z"/>
<path d="M2346 3323 c-12 -12 -6 -43 9 -43 8 0 15 9 15 19 0 21 -13 34 -24 24z"/>
<path d="M2383 2853 c-7 -2 -13 -11 -13 -19 0 -11 27 -14 145 -14 80 0 145 4
145 8 0 26 -30 32 -144 31 -67 0 -127 -3 -133 -6z"/>
<path d="M2445 2800 c-4 -6 20 -10 64 -10 41 0 71 4 71 10 0 6 -28 10 -64 10
-36 0 -68 -4 -71 -10z"/>
<path d="M2710 2365 c0 -39 3 -46 18 -43 13 2 17 13 17 43 0 30 -4 41 -17 43
-15 3 -18 -4 -18 -43z"/>
<path d="M1310 2385 c0 -17 5 -25 13 -22 6 2 12 12 12 22 0 10 -6 20 -12 23
-8 2 -13 -6 -13 -23z"/>
<path d="M1690 2365 c0 -38 3 -45 20 -45 17 0 20 7 20 45 0 38 -3 45 -20 45
-17 0 -20 -7 -20 -45z"/>
<path d="M1980 2385 c0 -16 6 -25 15 -25 9 0 15 9 15 25 0 16 -6 25 -15 25 -9
0 -15 -9 -15 -25z"/>
<path d="M2332 2368 c2 -31 8 -44 21 -46 14 -3 17 4 17 42 0 40 -3 46 -21 46
-18 0 -20 -5 -17 -42z"/>
<path d="M2022 1985 c3 -42 10 -49 44 -41 21 6 25 12 22 39 -3 28 -7 32 -36
35 -32 3 -33 2 -30 -33z"/>
<path d="M2526 2014 c-11 -10 -16 -34 -16 -69 0 -63 19 -91 51 -75 16 9 19 22
19 75 0 53 -3 66 -19 75 -15 7 -23 6 -35 -6z"/>
<path d="M3322 1983 c2 -30 8 -39 24 -41 28 -4 48 22 40 53 -5 20 -13 25 -37
25 -29 0 -30 -2 -27 -37z"/>
<path d="M1906 1979 c-10 -50 -7 -59 15 -59 19 0 21 4 14 38 -9 51 -21 60 -29
21z"/>
<path d="M1430 1606 c0 -9 7 -16 16 -16 17 0 14 22 -4 28 -7 2 -12 -3 -12 -12z"/>
<path d="M1508 1572 c-26 -3 -28 -7 -28 -48 0 -32 4 -44 15 -44 11 0 15 11 15
36 0 45 24 42 28 -4 5 -49 32 -42 32 8 0 44 -17 58 -62 52z"/>
<path d="M1430 1525 c0 -33 4 -45 15 -45 11 0 15 12 15 45 0 33 -4 45 -15 45
-11 0 -15 -12 -15 -45z"/>
<path d="M2238 1563 c-27 -18 -38 -33 -38 -51 0 -14 1 -23 3 -21 1 2 22 26 47
52 49 52 45 59 -12 20z"/>
<path d="M1829 1544 c-10 -13 -10 -17 1 -24 17 -10 30 -4 30 15 0 22 -16 26
-31 9z"/>
<path d="M1901 1547 c-9 -11 -8 -17 4 -27 12 -10 16 -9 21 5 9 23 -10 40 -25
22z"/>
<path d="M2882 1588 c-16 -16 -16 -100 0 -116 17 -17 94 -15 111 2 18 19 15
105 -4 117 -21 13 -93 11 -107 -3z m86 -30 c30 -30 0 -75 -43 -64 -19 5 -25
13 -25 35 0 38 41 56 68 29z"/>
<path d="M2920 1544 c-10 -11 -10 -17 0 -28 15 -19 40 -10 40 14 0 24 -25 33
-40 14z"/>
</g>
</svg>
